<svg xmlns="http://www.w3.org/2000/svg" viewBox="0 0 50 50" width="50px" height="50px"><path fill="#f3f3f3" d="M43.75861,20.5182v5.58955c-.12745,.39843-.10351,.83948-.51751,1.13735-2.90318,2.08886-6.05359,3.67989-9.46084,4.76882-.40546,.12958-.6971,.04874-.9393-.30668-.56355-.82696-1.09054-1.67436-1.57301-2.55185-.26875-.48879-.11742-.73114,.36028-.93478,.73108-.31165,1.44315-.66869,2.15671-1.01982,.17094-.08412,.45595-.15715,.36886-.4103-.09188-.26709-.35058-.43495-.6497-.3908-.21936,.03239-.42909,.14217-.6383,.22904-6.37086,2.64512-12.7406,2.61391-19.1103-.00383-.18901-.07768-.3763-.16791-.57327-.21603-.33918-.08286-.61763,.10637-.72701,.37348-.11666,.28488,.22861,.34694,.41128,.43787,.73222,.36448,1.46828,.72353,2.21838,1.04903,.43797,.19006,.52463,.43014,.30002,.84668-.47536,.88153-1.00576,1.72697-1.57391,2.55101-.25306,.36705-.5494,.48901-.99063,.3455-3.37843-1.09883-6.51042-2.67931-9.39562-4.75081-.30044-.2157-.44788-.48702-.47753-.85479-.18296-2.26994-.17504-4.53765,.0704-6.80218,.60708-5.60114,2.59725-10.69636,5.64505-15.40697,.27174-.42,.60917-.70814,1.06758-.90333,1.9718-.8396,3.99389-1.5247,6.08889-1.97804,2.04687-.44292,1.6875-.55907,2.55101,1.1906,.24811,.50274,.53614,.63078,1.06534,.56142,2.2611-.29634,4.53026-.35237,6.80226-.11813,1.66769,.17193,1.68838,.18408,2.42672-1.28472,.2765-.55004,.61704-.67705,1.20091-.55723,2.45957,.50475,4.84531,1.23031,7.14635,2.23741,.39285,.17194,.68039,.42421,.91275,.77968,2.48692,3.80459,4.30656,7.88656,5.21834,12.3569,.27264,1.33674,.40316,2.69185,.61576,4.03594Zm-17.20127-2.25799c.00537,.0993,.00686,.32687,.03157,.55191,.18227,1.66004,1.51953,3.103,3.05921,3.30705,1.62497,.21535,3.13437-.71349,3.76019-2.3069,.19309-.49163,.28799-1.00426,.32655-1.5249,.17634-2.38074-1.69988-4.3432-3.96758-4.16085-1.83721,.14773-3.21153,1.86293-3.20994,4.13369Zm-6.42001-.12693c.005-2.37012-1.61348-4.09755-3.76252-4.01582-1.67239,.06361-3.03484,1.38764-3.37986,3.28458-.45209,2.48556,1.36651,4.82133,3.69255,4.74265,1.9302-.06529,3.44522-1.82693,3.44983-4.01142Z"></path></svg>
