<svg version="1.1" id="Camada_1" xmlns="http://www.w3.org/2000/svg" xmlns:xlink="http://www.w3.org/1999/xlink" x="0px" y="0px" viewBox="0 0 957.5 957.5" style="enable-background:new 0 0 957.5 957.5;" xml:space="preserve" height="50" width="50">
<style type="text/css">
	.st0{display:none;}
	.st1{display:inline;fill:#F3F3F3;}
	.st2{fill:#F3F3F3;}
</style>
<g class="st0">
	<path class="st1" d="M825,289.2c0,0.8,0,1.6,0,2.3c-18.2,23.2-36.9,46.1-60.7,64c-6.9,5.2-9.4,11.4-9.3,19.9
		c0.2,39.5-4.2,78.6-16.1,116.2c-48.6,154.9-148.3,255.5-309.2,290.1c-14.7,3.2-29.8,4.9-44.6,7.2c-24.1,0-48.1,0-72.2,0
		c-3.4-0.7-6.8-1.6-10.2-2c-58-6.1-112-24.4-162.2-54c-3-1.8-7.3-2.7-8-8.6c36.5,3.4,71.8,0.3,106.5-9.2c34.4-9.5,65.8-24.8,95-46.9
		c-2.4-1.8-2.6-2.2-3-2.2c-4.2-0.8-8.4-1.5-12.6-2.3c-49.6-9.4-85.5-36.7-107.1-82.7c-6.6-14-5.9-14.8,9.1-14.4
		c13.6,0.4,27.4,2,42.6-3.7c-4.3-1.7-6.8-2.6-9.2-3.6c-58.4-21.7-91-63.8-98.4-125.7c-1.4-11.5,0.4-12.8,10.9-8.3
		c15,6.4,30.4,10.9,44.1,11.6c-5.1-6.3-10.8-14.2-17.3-21.2c-38.1-41.1-47.9-108.4-23-158c3.8-7.5,6.5-10.7,13.7-2.5
		c71.7,81.7,161.2,128.9,269.2,140c16.3,1.7,16.4,1.5,14.7-14.7c-4.9-49.1,11.4-90.2,47.5-123.5c20.6-19,45.7-28.8,72.3-35.5
		c14.7,0,29.5,0,44.2,0c27.1,6.3,52.9,15.5,73.4,35.3c7.4,7.1,14.4,8.8,24,6.1c23.3-6.3,45.6-14.8,66.9-26.2
		c2.2-1.2,4.8-3.8,7.2-0.9c1.6,1.9,0.2,4.5-0.7,6.6c-5,12.3-12.1,23.3-19.7,34.2c-8.5,12.1-20.5,20.7-32.6,31.9
		C777.9,306.7,801.1,296.4,825,289.2z"></path>
</g>
<g class="st0">
	<path class="st1" d="M803.3,254.9c-4,17.7-8.9,39.9-14.1,62.1C752.8,472.8,716,628.6,680.4,784.7c-5.3,23.4-25.9,31.9-46,16.6
		c-54-40.8-109.3-79.9-163.7-120.1c-6.8-5-10.6-4.9-16.8,0.9c-26.8,25.5-54.2,50.5-81.4,75.7c-19.7,18.2-35.7,14-43.9-11.8
		c-19.3-60.4-38.8-120.8-57.7-181.3c-3.1-9.9-7.8-15.2-18-18.2c-46.9-14-93.5-29-140.2-43.7c-2.9-0.9-5.7-1.8-8.5-2.9
		c-10-4.1-15.4-11.7-15.6-22.5s5.9-17.2,15.5-21c38.2-15.1,76.4-30.4,114.6-45.5c171.9-68.2,344-136,515.7-204.9
		C773.4,190.4,803.7,217.5,803.3,254.9z M738.9,259.5c-0.4-0.5-0.9-1-1.3-1.6c-23.7,15.5-47.4,31.1-71.1,46.6
		c-119.1,78-238.2,156.1-357.5,234c-6.6,4.3-7.7,8.3-5.5,15.5c5.4,17.5,9.8,35.2,14.7,52.8c9,32.5,18.2,65.1,27.9,99.8
		c1.5-4.4,2.4-6.4,2.8-8.5c5.5-31.6,10.9-63.3,16.3-94.9c1.3-7.3,2.7-13.9,9.1-19.5C453,514.1,531.5,444.2,610,374.3
		C653,336.1,695.9,297.8,738.9,259.5z"></path>
</g>
<g>
	<path class="st2" d="M415.7,228.4c50.8,0,101.6,0,152.4,0c2.9,1.1,5.9,0.7,8.9,0.8c19.2,0.6,38.5,1.1,57.4,5.2
		c49.4,10.9,84.1,39.1,101.5,87.2c8.4,23.3,10.4,47.6,10.5,72c0.2,58.4,0.2,116.9,0,175.3c-0.1,18.6-1,37.2-4.9,55.4
		c-10.4,48.7-37.7,83.3-84.6,101.5c-22.6,8.8-46.4,10.7-70.4,11.5c-53.8,1.7-107.6,1.2-161.3,0.7c-26.5-0.3-53.1-0.3-79.2-6.6
		c-42.2-10.2-73.6-34.2-92.2-73.7c-11.5-24.3-14.5-50.5-15.4-77c-1.8-55.1-1.2-110.2-0.8-165.3c0.2-23.2,0.5-46.5,4.7-69.5
		c6.5-35.5,22.8-65.3,52-87.2c25-18.8,54-26.1,84.6-28.5C391.2,229.4,403.5,229.9,415.7,228.4z M492.5,692.6c13.4,0,26.9,0.1,40.3,0
		c28.9-0.4,57.8,0.6,86.5-4c37.5-5.9,63.4-26.3,74.8-63.3c5.2-17,5.8-34.6,6.4-52.2c1.5-45.1,1.1-90.3,0.8-135.5
		c-0.2-26.9,0.1-53.8-3.8-80.5c-5.9-40.8-31.1-68-71.3-77.1c-17.8-4-35.9-4.3-54-4.6c-44.5-0.9-89-0.8-133.5-0.4
		c-25.5,0.3-51.2-0.2-76.5,4.2c-38.7,6.8-64.5,31.5-73.4,69.7c-3.9,16.8-4.3,33.9-4.7,51c-1.1,41-1.1,82-0.7,123
		c0.3,28.7-0.4,57.5,3.6,86c3.8,26.4,14.9,48.8,37.4,64.3c17.4,12,37.3,16.1,57.9,17.4C419.1,693,455.8,692.5,492.5,692.6z"></path>
	<path class="st2" d="M361.3,483.6c-0.2-72.1,58.7-131.1,131-131.1c72.3,0,130.5,58,131,130.6c0.5,72.1-58.3,131.2-130.7,131.4
		C420.4,614.7,361.5,556,361.3,483.6z M492,568.3c47,0.1,84.9-37.5,85.2-84.5c0.2-47-37.4-85-84.4-85.3
		c-47.2-0.3-85.3,37.5-85.4,84.7C407.3,530.3,445,568.2,492,568.3z"></path>
	<path class="st2" d="M629.2,316.8c17.1,0.3,30.2,14.2,29.8,31.4c-0.4,16.8-14.2,29.9-31.1,29.6c-16.8-0.3-30.2-14.4-29.9-31.5
		C598.3,329.6,612.3,316.4,629.2,316.8z"></path>
</g>
</svg>
