<svg xmlns="http://www.w3.org/2000/svg" viewBox="0 0 50 50" width="50px" height="50px"><path fill="#f3f3f3" d="M42.66624,3.18675c-.24004,1.05717-.53402,2.38276-.84239,3.70501-2.171,9.30858-4.3673,18.6114-6.49394,27.93005-.31942,1.39967-1.54414,1.90197-2.74642,.99383-3.22485-2.43587-6.52433-4.77315-9.77671-7.17315-.40488-.29877-.63584-.29396-1.00027,.05244-1.60256,1.52325-3.23481,3.01542-4.85733,4.51773-1.17636,1.0892-2.13169,.83429-2.62312-.7019-1.15392-3.6072-2.31934-7.21086-3.44439-10.82702-.18435-.59255-.46325-.90474-1.07326-1.08739-2.80017-.83838-5.58372-1.7321-8.37291-2.60696-.17017-.05337-.34118-.10684-.50569-.17494C.33287,17.56738,.01263,17.11822,.0003,16.47275c-.01231-.64419,.35135-1.0245,.92289-1.2511,2.28122-.90446,4.56072-1.81321,6.84176-2.71812C18.0305,8.43107,28.30601,4.3833,38.55479,.26922c2.32691-.93407,4.13746,.68916,4.11146,2.91753Zm-3.84195,.27509l-.0795-.09369c-1.41551,.9272-2.83108,1.85432-4.24653,2.78162-7.11295,4.65993-14.22363,9.32334-21.3448,13.97071-.39556,.25814-.45969,.49423-.32626,.92626,.32187,1.04223,.5841,2.10269,.87653,3.1541,.54034,1.9428,1.08509,3.88438,1.66568,5.96128,.08738-.26102,.14535-.38124,.1673-.50768,.32761-1.88799,.65104-3.77669,.97401-5.66547,.07484-.43767,.16291-.8296,.54254-1.16519,4.70102-4.15576,9.38428-8.33153,14.0712-12.50318,2.56751-2.28525,5.13328-4.57244,7.69984-6.85876Z"/></svg>
