<svg xmlns="http://www.w3.org/2000/svg" viewBox="0 0 50 50" width="50px" height="50px"><path fill="#f3f3f3" d="M43.96411,5.23769v.13945c-1.08799,1.38767-2.20512,2.75015-3.62225,3.82035-.41205,.31117-.56115,.68131-.55815,1.19016,.01392,2.3578-.25295,4.69014-.95912,6.93928-2.90392,9.24898-8.85722,15.2549-18.46252,17.32053-.87897,.18902-1.77676,.28997-2.66582,.43182h-4.30848c-.20343-.04057-.40515-.0976-.61056-.11924-3.46268-.36488-6.68568-1.45455-9.68361-3.22216-.17979-.10601-.43703-.15891-.47868-.51242,2.17751,.20134,4.28673,.01965,6.35685-.55105,2.05423-.56632,3.93145-1.47878,5.67099-2.79863-.14042-.10616-.15726-.12889-.17767-.13279-.24975-.04769-.50032-.09102-.75011-.13851-2.9613-.56289-5.10574-2.19104-6.39215-4.93692-.39257-.83795-.35255-.88215,.54075-.85712,.81276,.02278,1.63847,.11992,2.54553-.22009-.25929-.09986-.40517-.1577-.5522-.21243-3.4854-1.29744-5.43376-3.8078-5.87306-7.50334-.08189-.68893,.02227-.76605,.65178-.49831,.89486,.38059,1.81304,.64996,2.63059,.69154-.30527-.37738-.64207-.84714-1.03211-1.26712-2.27674-2.45154-2.86252-6.47379-1.37083-9.4368,.22621-.44933,.38868-.63609,.81909-.14634,4.27693,4.8666,9.61907,7.68274,16.06943,8.35018,.97524,.10091,.97794,.09154,.88057-.87822-.29443-2.93265,.68268-5.38518,2.83629-7.37334,1.22916-1.13474,2.73073-1.71947,4.31913-2.12241h2.64068c1.61743,.37511,3.16059,.92618,4.38176,2.10701,.43976,.42523,.85977,.52306,1.43296,.36678,1.38953-.37884,2.72567-.88146,3.996-1.56229,.13009-.06972,.28467-.22961,.43003-.05509,.09626,.11557,.01121,.26643-.04011,.39402-.29612,.73631-.72318,1.39419-1.17573,2.04249-.50624,.72523-1.22213,1.23347-1.94576,1.90514,1.64575-.11035,3.02752-.7249,4.45646-1.15411Z"/></svg>
